<?xml version="1.0" standalone="no"?>
<!DOCTYPE svg PUBLIC "-//W3C//DTD SVG 1.1//EN" "http://www.w3.org/Graphics/SVG/1.1/DTD/svg11.dtd" >
<svg xmlns="http://www.w3.org/2000/svg" xmlns:xlink="http://www.w3.org/1999/xlink" version="1.1">
<metadata></metadata>
<defs>
<font id="ufo_nestregular" horiz-adv-x="1136" >
<font-face units-per-em="2048" ascent="1536" descent="-512" />
<missing-glyph horiz-adv-x="500" />
<glyph horiz-adv-x="0" />
<glyph horiz-adv-x="682" />
<glyph unicode="A" horiz-adv-x="1110" d="M0 0v1518l35 2q4 0 52 -3.5t123 -26t168 -71.5t185 -139q399 -393 400 -1280h-74q0 856 -377 1227q-88 86 -174.5 130t-147.5 62q-37 10 -66.5 15.5t-49.5 9.5v-1059h387q12 51 53 84t94 33q63 0 108.5 -44t45.5 -110q0 -63 -45 -107t-109 -44q-53 0 -94 32.5t-53 81.5 h-387v-311h-74zM528 348q0 -33 23.5 -55.5t56.5 -22.5q35 0 57.5 22.5t22.5 55.5q0 35 -22.5 57.5t-57.5 22.5q-33 0 -56.5 -22.5t-23.5 -57.5z" />
<glyph unicode="B" d="M0 0v1520h76v-299h149q6 63 36 117.5t74 94.5t101.5 63.5t122.5 23.5q70 0 130.5 -27t105.5 -73t71.5 -106.5t26.5 -129.5q0 -70 -26.5 -130.5t-71.5 -106.5t-105.5 -72.5t-130.5 -26.5q-66 0 -123 23.5t-101 63.5t-74 94t-36 118h-149v-729h147q6 76 39 142.5t85 116.5 t120.5 78.5t146.5 28.5q80 0 152 -30.5t124 -84t83 -125t31 -151.5t-31 -151.5t-83 -125t-124 -84t-152 -30.5q-74 0 -140 26.5t-118.5 72.5t-86 107.5t-42.5 133.5h-151v-342h-76zM299 393q0 -66 24.5 -123t67.5 -100t100 -67.5t123 -24.5q63 0 121 24.5t101 67.5 t68.5 100.5t25.5 122.5q0 66 -25.5 123t-68.5 100t-100.5 68t-121.5 25q-66 0 -123 -25t-100 -68t-67.5 -100t-24.5 -123zM299 1184q0 -53 20.5 -101.5t55.5 -83t83 -55t101 -20.5t100.5 20.5t82 55t55 82.5t20.5 102q0 53 -20.5 100t-55 83t-82 56.5t-100.5 20.5 t-101 -20.5t-83 -56.5t-55.5 -83t-20.5 -100z" />
<glyph unicode="C" horiz-adv-x="882" d="M0 760q0 156 59.5 295t163 241.5t241.5 163t296 60.5v-76q-141 0 -266 -54.5t-218.5 -146.5t-147.5 -217t-54 -266t54 -266t147.5 -217.5t218 -146.5t266.5 -54v-76q-158 0 -296 60.5t-241.5 163t-163 240.5t-59.5 296zM141 760h76q0 -113 43 -211t117 -172t172 -117 t211 -43v-74q-129 0 -241.5 48.5t-196.5 132.5t-132.5 196.5t-48.5 239.5z" />
<glyph unicode="D" d="M0 393q0 86 54.5 147.5t133.5 75.5v902h37q156 0 295 -60.5t241.5 -163t163 -242t60.5 -294.5q0 -158 -60.5 -295t-163 -240.5t-241.5 -163t-295 -59.5v74q141 0 266 54t217.5 146.5t146.5 217t54 266.5q0 137 -50 258t-138 213t-206 148.5t-253 64.5v-826 q80 -14 134.5 -75.5t54.5 -147.5q0 -47 -17.5 -88t-48.5 -71.5t-72 -48t-88 -17.5t-88 17.5t-71.5 48t-48 71.5t-17.5 88zM74 393q0 -61 44 -105t107 -44t107.5 44t44.5 105q0 63 -44 107.5t-108 44.5q-63 0 -107 -44t-44 -108z" />
<glyph unicode="E" horiz-adv-x="995" d="M0 760q0 156 59.5 295t163 241.5t241.5 163t296 60.5v-76q-137 0 -259 -50.5t-214 -138.5t-148.5 -205.5t-62.5 -252.5h418q14 82 75.5 136t147.5 54q47 0 88 -18.5t71.5 -49t49 -71.5t18.5 -88t-18.5 -88t-49 -72t-71.5 -49.5t-88 -18.5q-86 0 -147.5 54.5t-75.5 136.5 h-418q6 -135 62.5 -253t148.5 -206t214 -138t259 -50v-76q-158 0 -296 60.5t-241.5 163t-163 240.5t-59.5 296zM565 760q0 -63 44 -107.5t108 -44.5q63 0 108 44t45 108q0 63 -45 107t-108 44t-107.5 -44t-44.5 -107z" />
<glyph unicode="F" horiz-adv-x="1081" d="M0 0v797q8 150 70.5 281.5t165 230t236.5 155t288 56.5v-74q-137 0 -259 -51.5t-214 -138.5t-148.5 -205.5t-64.5 -253.5h420q14 80 76.5 134t148.5 54q47 0 88 -17.5t71.5 -48t48 -71.5t17.5 -88t-17.5 -88t-48 -72t-71.5 -49.5t-88 -18.5q-86 0 -148.5 54.5 t-76.5 136.5h-420v-723h-74zM565 760q0 -66 44 -110t110 -44q63 0 108 44t45 110q0 63 -45 108t-108 45q-66 0 -110 -45t-44 -108z" />
<glyph unicode="G" horiz-adv-x="1679" d="M0 758q0 156 59.5 295t163 241.5t240.5 163t295 60.5t296 -60.5t241.5 -163t163 -242t59.5 -294.5h-74q0 141 -54.5 266t-147.5 218t-218 147.5t-266 54.5t-266 -54.5t-217.5 -147.5t-146.5 -218t-54 -266q0 -137 51 -262t149 -224q98 -98 222.5 -149t261.5 -51 q129 0 247.5 46t213.5 132l-326 325q-59 -43 -135 -43q-47 0 -88 17.5t-72 48.5t-48.5 72t-17.5 88t17.5 88t48.5 71.5t72 49t88 18.5t88 -18.5t71.5 -49t49 -71.5t18.5 -88q0 -72 -41 -129l350 -353l33 -22l-31 -31q-109 -109 -247 -166t-291 -57q-154 0 -291 56.5 t-246 164.5q-109 109 -165 246t-56 291zM606 758q0 -63 44.5 -108.5t107.5 -45.5q66 0 109.5 45t43.5 109q0 63 -44 108t-109 45q-63 0 -107.5 -45t-44.5 -108z" />
<glyph unicode="H" horiz-adv-x="1392" d="M0 0v1520h74v-723h559q14 80 75.5 133t145.5 53q45 0 86 -17.5t71.5 -48t48 -71.5t17.5 -86q0 -47 -17.5 -87t-48 -71t-71.5 -48t-86 -17q-84 0 -145.5 53t-75.5 133h-559v-723h-74zM702 760q0 -61 44.5 -105.5t107.5 -44.5q61 0 105.5 44t44.5 106q0 61 -44.5 105 t-105.5 44q-63 0 -107.5 -44t-44.5 -105zM1139 0v1520h73v-1520h-73z" />
<glyph unicode="I" horiz-adv-x="428" d="M0 154q0 53 33 94t84 53v918q-51 12 -84 53t-33 94q0 63 44 108.5t108 45.5q66 0 109.5 -45t43.5 -109q0 -53 -32.5 -94t-84.5 -53v-918q51 -12 84 -53t33 -94q0 -63 -44 -108.5t-109 -45.5q-63 0 -107.5 45t-44.5 109zM74 154q0 -33 22.5 -56.5t55.5 -23.5q35 0 57 23.5 t22 56.5t-22.5 56t-56.5 23q-33 0 -55.5 -23.5t-22.5 -55.5zM74 1366q0 -33 22.5 -56.5t55.5 -23.5q35 0 57 23.5t22 56.5t-22.5 56.5t-56.5 23.5q-33 0 -55.5 -23.5t-22.5 -56.5z" />
<glyph unicode="J" horiz-adv-x="909" d="M0 373h74q0 -61 23.5 -115.5t63.5 -95.5t95 -64.5t117 -23.5q61 0 115.5 23.5t95.5 64.5t64.5 95t23.5 116v1147h73v-1147q0 -78 -29.5 -145.5t-79.5 -118t-118.5 -80t-144.5 -29.5q-78 0 -145.5 29.5t-118 80t-80 118t-29.5 145.5zM150 373q0 47 17 88t48 71.5t71 48 t87 17.5q45 0 86 -17.5t71.5 -48t48 -71.5t17.5 -88t-17.5 -87t-48 -71t-71.5 -48t-86 -17q-47 0 -87 17t-71 48t-48 71t-17 87zM221 373q0 -61 44 -105.5t108 -44.5q61 0 105 44t44 106q0 63 -44 107t-105 44q-63 0 -107.5 -44t-44.5 -107z" />
<glyph unicode="K" horiz-adv-x="1222" d="M0 0v1516h74v-721h98q6 39 25.5 72.5t48 58t65.5 40t78 15.5q37 119 107.5 218t166 170t211 110t240.5 39v-74q-111 0 -214 -35t-189 -97.5t-150.5 -150.5t-99.5 -192q68 -23 110.5 -80.5t42.5 -130.5q0 -74 -43 -131.5t-108 -79.5q33 -106 97.5 -193.5t150.5 -150 t188 -97t215 -34.5v-74q-125 0 -240.5 39t-211 109.5t-166 170t-107.5 218.5q-41 0 -78 15t-65.5 39.5t-48 58.5t-25.5 73h-98v-721h-74zM242 758q0 -61 44 -105.5t105 -44.5q63 0 107.5 44.5t44.5 105.5t-44 105t-108 44q-61 0 -105 -44t-44 -105z" />
<glyph unicode="L" horiz-adv-x="1222" d="M0 760q0 84 54.5 145.5t131.5 75.5v539h74v-539q80 -14 133 -75.5t53 -145.5t-53 -145.5t-133 -75.5v-465h772v-74h-809h-37v539q-78 14 -132 75.5t-54 145.5zM74 760q0 -61 44 -105.5t105 -44.5q63 0 107.5 44t44.5 106q0 61 -44 105t-108 44q-61 0 -105 -44t-44 -105z " />
<glyph unicode="M" horiz-adv-x="1536" d="M0 0v1520h37q150 0 285 -54.5t241 -158.5q57 39 127 39q45 0 86 -17.5t72 -48.5t48 -72t17 -86q0 -47 -17 -87t-48 -70.5t-72 -48t-86 -17.5q-47 0 -87 17.5t-70.5 48t-48 70.5t-17.5 87q0 74 43 133q-90 86 -201.5 134.5t-234.5 54.5v-1444h-74zM541 1122q0 -61 44 -105 t105 -44q63 0 106.5 44t43.5 105q0 63 -43 106.5t-107 43.5q-61 0 -105 -43t-44 -107zM874 1366q98 76 215 115t242 39h37v-1520h-74v1444q-209 -10 -376 -137z" />
<glyph unicode="N" horiz-adv-x="1196" d="M0 0v1518l35 2q4 0 52 -3.5t123 -26t168 -71.5t185 -139q227 -221 326 -610v547q-51 12 -84 54t-33 95q0 63 45 107.5t109 44.5q63 0 107 -44.5t44 -107.5q0 -53 -32.5 -95t-81.5 -54v-1217h-74q0 856 -377 1227q-88 86 -174 130t-148 62q-37 10 -66.5 15.5t-49.5 9.5 v-1444h-74zM846 1366q0 -35 22.5 -57.5t57.5 -22.5q33 0 56.5 22.5t23.5 57.5q0 33 -24 56.5t-56 23.5q-35 0 -57.5 -23.5t-22.5 -56.5z" />
<glyph unicode="O" horiz-adv-x="1677" d="M0 760q0 156 59.5 295t163 241.5t241.5 163t296 60.5q156 0 294 -60.5t241.5 -163t163 -242t59.5 -294.5q0 -158 -59.5 -296t-163 -240.5t-242 -163t-293.5 -60.5q-158 0 -296 60.5t-241.5 163t-163 240.5t-59.5 296zM74 760q0 -141 54 -266t147.5 -218.5t218.5 -147.5 t266 -54t266 54t217 147.5t146.5 218t54.5 266.5q0 137 -50.5 259t-138.5 214t-206.5 148.5t-253.5 62.5v-465q80 -12 134 -73.5t54 -145.5q0 -47 -17.5 -87t-48 -71t-71.5 -48t-86 -17q-47 0 -88 17t-71 48t-47 71t-17 87q0 84 53 145.5t133 73.5v465q-135 -6 -254 -62.5 t-207 -148.5t-138 -214t-50 -259zM608 760q0 -61 44 -105.5t108 -44.5q61 0 105 44t44 106q0 61 -44 105t-105 44q-63 0 -107.5 -44t-44.5 -105z" />
<glyph unicode="P" horiz-adv-x="1167" d="M0 0v1520h74v-390h108q6 82 42 153t91.5 123t127 82t153.5 30q86 0 162 -33t132 -90.5t89 -134t33 -164.5t-33 -165t-89 -134.5t-132 -91t-162 -33.5q-82 0 -153.5 29.5t-127 82t-91.5 123t-42 152.5h-108v-1059h-74zM254 1096q0 -74 26.5 -137.5t73.5 -110.5t108.5 -75 t133.5 -28q70 0 132.5 28t109.5 75t73.5 110.5t26.5 137.5q0 72 -26.5 135t-73.5 111.5t-109.5 76t-132.5 27.5q-72 0 -133.5 -27.5t-108.5 -76t-73.5 -112t-26.5 -134.5z" />
<glyph unicode="Q" horiz-adv-x="1677" d="M0 758q0 156 59.5 294t163 241.5t240.5 163t293 59.5t294 -59.5t241.5 -163t162.5 -242t59 -293.5q0 -123 -37.5 -237.5t-111.5 -213.5l-57 43q66 90 99.5 193.5t33.5 214.5q0 141 -53.5 266t-146.5 217t-218 146.5t-266 54.5t-265 -54.5t-217.5 -146.5t-146.5 -217 t-53 -266t53 -266t146.5 -217.5t217 -146.5t265.5 -54q129 0 245.5 45t212.5 131l-325 325q-59 -43 -133 -43q-47 0 -88 17.5t-72 48.5t-48.5 72t-17.5 88t17.5 88t48.5 71.5t72 48t88 17.5t88 -17.5t71.5 -48t49 -71.5t18.5 -88q0 -72 -43 -131l578 -578l-52 -53l-200 201 q-104 -96 -235.5 -145.5t-274.5 -49.5q-156 0 -293 59.5t-240.5 162t-163 239.5t-59.5 295zM604 758q0 -63 44 -108.5t108 -45.5q66 0 109.5 45t43.5 109q0 63 -44 108t-109 45q-63 0 -107.5 -45t-44.5 -108z" />
<glyph unicode="R" horiz-adv-x="1138" d="M0 2v1518h74v-381h108q6 80 41 149.5t89.5 119.5t125 80t150.5 30q84 0 158.5 -33t130 -89.5t87 -132t31.5 -161.5t-31.5 -161t-87 -131t-130 -89t-158.5 -33q-80 0 -150.5 30t-125 80t-89.5 119.5t-41 149.5h-108v-307q152 -6 285 -67.5t232 -164t156.5 -238.5 t57.5 -290h-72q0 139 -52 262t-141 215t-209 147.5t-257 61.5v-684h-74zM254 1102q0 -72 26.5 -133.5t71.5 -108.5t105.5 -73.5t130.5 -26.5t130 26.5t105 73.5t72 108.5t27 133.5t-27 134t-72 109.5t-105 74t-130 26.5t-130.5 -26.5t-105.5 -74t-71.5 -109.5t-26.5 -134z " />
<glyph unicode="S" horiz-adv-x="909" d="M0 1120q0 82 31.5 155t85 127t126 86t154.5 32v-74q-68 0 -127 -25.5t-102 -69.5t-68.5 -103.5t-25.5 -127.5q0 -61 22.5 -117.5t60.5 -99.5t90 -70.5t113 -33.5v174q-49 12 -82.5 53t-33.5 94q0 63 45 108.5t108 45.5t107.5 -45t44.5 -109q0 -53 -33 -94t-84 -53v-178 q76 -6 141.5 -40t114.5 -87.5t77 -122t28 -146.5q0 -82 -32 -154.5t-85 -127t-125 -86t-154 -31.5v74q68 0 126.5 25.5t102.5 69.5t69.5 103.5t25.5 126.5q0 61 -22.5 116.5t-61.5 98.5t-91 72t-114 35v-174q51 -12 84 -53t33 -95q0 -63 -44 -108t-108 -45q-63 0 -108 45 t-45 108q0 53 33.5 94.5t82.5 53.5v178q-76 6 -141 40t-114.5 87t-77 121.5t-27.5 146.5zM317 399q0 -35 22.5 -57.5t57.5 -22.5q33 0 55.5 22.5t22.5 57.5q0 33 -22.5 55.5t-55.5 22.5q-35 0 -57.5 -22.5t-22.5 -55.5zM317 1120q0 -33 22.5 -55.5t57.5 -22.5 q33 0 55.5 22.5t22.5 55.5q0 35 -22.5 57.5t-55.5 22.5q-35 0 -57.5 -22.5t-22.5 -57.5z" />
<glyph unicode="T" horiz-adv-x="1679" d="M0 760q0 156 59.5 295t163 241.5t241.5 163t296 60.5q156 0 295 -60.5t241.5 -163t163 -242t60.5 -294.5h-74q0 137 -51.5 258t-138.5 213t-205.5 149.5t-253.5 63.5v-465q39 -6 72.5 -25.5t59 -49.5t40 -66.5t14.5 -77.5q0 -84 -54.5 -145.5t-131.5 -75.5v-539h-74v539 q-80 14 -133 75.5t-53 145.5t53 145.5t133 73.5v465q-135 -6 -254 -63.5t-207 -149.5t-138 -213t-50 -258h-74zM610 760q0 -63 43 -107.5t107 -44.5q61 0 105 44.5t44 107.5q0 61 -44 105t-105 44q-63 0 -106.5 -44t-43.5 -105z" />
<glyph unicode="U" horiz-adv-x="1079" d="M0 473v1047h74v-1047q0 -78 27.5 -147.5t76.5 -122.5t115.5 -87t144.5 -40v164q-80 12 -134 73.5t-54 145.5q0 45 17.5 86t48 71.5t70.5 48t87 17.5q45 0 86 -17.5t72 -48t48 -71.5t17 -86q0 -84 -53 -144.5t-131 -74.5v-164q76 6 141.5 40t114.5 88t76.5 122.5 t27.5 146.5v1047h74v-1047q0 -98 -37 -184t-101.5 -150.5t-150.5 -101.5t-184 -37t-184 37t-150.5 101.5t-101.5 150.5t-37 184zM324 459q0 -61 43 -105.5t106 -44.5q61 0 105.5 44t44.5 106q0 63 -44 107t-106 44q-63 0 -106 -44t-43 -107z" />
<glyph unicode="V" horiz-adv-x="1308" d="M0 1493l68 27l505 -1315l207 540l-90 39q-43 -55 -117 -55q-63 0 -108 44t-45 108q0 66 45 109.5t108 43.5t108.5 -44t45.5 -109q0 -10 -4 -31l84 -37l270 707l70 -27l-574 -1493zM494 881q0 -33 22 -56.5t57 -23.5q33 0 56.5 23.5t23.5 56.5q0 35 -23.5 57.5t-56.5 22.5 q-35 0 -57 -23t-22 -57z" />
<glyph unicode="W" horiz-adv-x="1507" d="M0 0v1520h74v-1444q123 6 234.5 54t201.5 134q-43 59 -43 133q0 45 17.5 86t48 72t70.5 48.5t87 17.5q45 0 86 -17.5t72 -48.5t48 -72t17 -86q0 -47 -17 -87t-48 -70.5t-72 -48t-86 -17.5q-70 0 -127 39q-106 -104 -241.5 -158.5t-284.5 -54.5h-37zM541 397 q0 -63 44 -106t105 -43q63 0 106.5 43t43.5 106q0 61 -43 105.5t-107 44.5q-61 0 -105 -44t-44 -106zM874 154l44 59q168 -127 376 -137v1444h74v-1520h-37q-125 0 -241.5 39t-215.5 115z" />
<glyph unicode="X" horiz-adv-x="1536" d="M0 49l508 572q-49 61 -49 139t49 139l-508 571l55 50l506 -572q53 35 123 35q66 0 117 -33l504 570l55 -50l-504 -567q51 -61 51 -143t-51 -144l504 -567l-55 -49l-504 569q-50 -32 -113 -32h-4q-70 0 -123 34l-506 -571zM532 760q0 -63 44.5 -107.5t107.5 -44.5 q61 0 105.5 44t44.5 108q0 63 -44.5 107t-105.5 44q-63 0 -107.5 -44t-44.5 -107z" />
<glyph unicode="Y" horiz-adv-x="1224" d="M0 1520h74q0 -98 36.5 -183.5t100 -150t149.5 -101t183 -36.5q98 0 183 36.5t149.5 101t101.5 149.5t37 184h73q0 -109 -39.5 -204t-108.5 -169t-161 -119t-198 -51v-262q51 -12 83.5 -53t32.5 -95q0 -53 -32.5 -94t-83.5 -53v-420h-72v420q-51 12 -84 53t-33 94t33 94 t84 54v262q-106 6 -199.5 51t-162 119t-107.5 169t-39 204zM465 567q0 -33 22.5 -56.5t55.5 -23.5q35 0 57.5 23.5t22.5 56.5t-22.5 56.5t-57.5 23.5q-33 0 -55.5 -23.5t-22.5 -56.5z" />
<glyph unicode="Z" horiz-adv-x="1122" d="M0 0l442 608q-65 65 -65 155q0 48 17.5 88t47 70.5t69.5 48t85 17.5q53 0 102 -26l355 485h-981v74h1122l-436 -602q29 -29 44 -68t15 -84t-17.5 -85t-47 -70.5t-70.5 -48t-86 -17.5q-49 0 -94 22l-361 -493h981v-74h-1122zM449 766q0 -61 44 -104.5t103 -43.5 q61 0 105 43.5t44 104.5t-44 104t-105 43q-59 0 -103 -43t-44 -104z" />
<glyph unicode="a" horiz-adv-x="1110" d="M0 0v1518l35 2q4 0 52 -3.5t123 -26t168 -71.5t185 -139q399 -393 400 -1280h-74q0 856 -377 1227q-88 86 -174.5 130t-147.5 62q-37 10 -66.5 15.5t-49.5 9.5v-1059h387q12 51 53 84t94 33q63 0 108.5 -44t45.5 -110q0 -63 -45 -107t-109 -44q-53 0 -94 32.5t-53 81.5 h-387v-311h-74zM528 348q0 -33 23.5 -55.5t56.5 -22.5q35 0 57.5 22.5t22.5 55.5q0 35 -22.5 57.5t-57.5 22.5q-33 0 -56.5 -22.5t-23.5 -57.5z" />
<glyph unicode="b" horiz-adv-x="1107" d="M0 0v1520h76v-299h149q6 63 36 117.5t74 94.5t101.5 63.5t122.5 23.5q70 0 130.5 -27t105.5 -73t71.5 -106.5t26.5 -129.5q0 -70 -26.5 -130.5t-71.5 -106.5t-105.5 -72.5t-130.5 -26.5q-66 0 -123 23.5t-101 63.5t-74 94t-36 118h-149v-729h147q6 76 39 142.5t85 116.5 t120.5 78.5t146.5 28.5q80 0 152 -30.5t124 -84t83 -125t31 -151.5t-31 -151.5t-83 -125t-124 -84t-152 -30.5q-74 0 -140 26.5t-118.5 72.5t-86 107.5t-42.5 133.5h-151v-342h-76zM299 393q0 -66 24.5 -123t67.5 -100t100 -67.5t123 -24.5q63 0 121 24.5t101 67.5 t68.5 100.5t25.5 122.5q0 66 -25.5 123t-68.5 100t-100.5 68t-121.5 25q-66 0 -123 -25t-100 -68t-67.5 -100t-24.5 -123zM299 1184q0 -53 20.5 -101.5t55.5 -83t83 -55t101 -20.5t100.5 20.5t82 55t55 82.5t20.5 102q0 53 -20.5 100t-55 83t-82 56.5t-100.5 20.5 t-101 -20.5t-83 -56.5t-55.5 -83t-20.5 -100z" />
<glyph unicode="c" horiz-adv-x="882" d="M0 760q0 156 59.5 295t163 241.5t241.5 163t296 60.5v-76q-141 0 -266 -54.5t-218.5 -146.5t-147.5 -217t-54 -266t54 -266t147.5 -217.5t218 -146.5t266.5 -54v-76q-158 0 -296 60.5t-241.5 163t-163 240.5t-59.5 296zM141 760h76q0 -113 43 -211t117 -172t172 -117 t211 -43v-74q-129 0 -241.5 48.5t-196.5 132.5t-132.5 196.5t-48.5 239.5z" />
<glyph unicode="d" d="M0 393q0 86 54.5 147.5t133.5 75.5v902h37q156 0 295 -60.5t241.5 -163t163 -242t60.5 -294.5q0 -158 -60.5 -295t-163 -240.5t-241.5 -163t-295 -59.5v74q141 0 266 54t217.5 146.5t146.5 217t54 266.5q0 137 -50 258t-138 213t-206 148.5t-253 64.5v-826 q80 -14 134.5 -75.5t54.5 -147.5q0 -47 -17.5 -88t-48.5 -71.5t-72 -48t-88 -17.5t-88 17.5t-71.5 48t-48 71.5t-17.5 88zM74 393q0 -61 44 -105t107 -44t107.5 44t44.5 105q0 63 -44 107.5t-108 44.5q-63 0 -107 -44t-44 -108z" />
<glyph unicode="e" horiz-adv-x="1081" d="M0 760q0 156 59.5 295t163 241.5t241.5 163t296 60.5v-76q-137 0 -259 -50.5t-214 -138.5t-148.5 -205.5t-62.5 -252.5h418q14 82 75.5 136t147.5 54q47 0 88 -18.5t71.5 -49t49 -71.5t18.5 -88t-18.5 -88t-49 -72t-71.5 -49.5t-88 -18.5q-86 0 -147.5 54.5t-75.5 136.5 h-418q6 -135 62.5 -253t148.5 -206t214 -138t259 -50v-76q-158 0 -296 60.5t-241.5 163t-163 240.5t-59.5 296zM565 760q0 -63 44 -107.5t108 -44.5q63 0 108 44t45 108q0 63 -45 107t-108 44t-107.5 -44t-44.5 -107z" />
<glyph unicode="f" horiz-adv-x="1110" d="M0 0v797q8 150 70.5 281.5t165 230t236.5 155t288 56.5v-74q-137 0 -259 -51.5t-214 -138.5t-148.5 -205.5t-64.5 -253.5h420q14 80 76.5 134t148.5 54q47 0 88 -17.5t71.5 -48t48 -71.5t17.5 -88t-17.5 -88t-48 -72t-71.5 -49.5t-88 -18.5q-86 0 -148.5 54.5 t-76.5 136.5h-420v-723h-74zM565 760q0 -66 44 -110t110 -44q63 0 108 44t45 110q0 63 -45 108t-108 45q-66 0 -110 -45t-44 -108z" />
<glyph unicode="g" horiz-adv-x="1648" d="M0 758q0 156 59.5 295t163 241.5t240.5 163t295 60.5t296 -60.5t241.5 -163t163 -242t59.5 -294.5h-74q0 141 -54.5 266t-147.5 218t-218 147.5t-266 54.5t-266 -54.5t-217.5 -147.5t-146.5 -218t-54 -266q0 -137 51 -262t149 -224q98 -98 222.5 -149t261.5 -51 q129 0 247.5 46t213.5 132l-326 325q-59 -43 -135 -43q-47 0 -88 17.5t-72 48.5t-48.5 72t-17.5 88t17.5 88t48.5 71.5t72 49t88 18.5t88 -18.5t71.5 -49t49 -71.5t18.5 -88q0 -72 -41 -129l350 -353l33 -22l-31 -31q-109 -109 -247 -166t-291 -57q-154 0 -291 56.5 t-246 164.5q-109 109 -165 246t-56 291zM606 758q0 -63 44.5 -108.5t107.5 -45.5q66 0 109.5 45t43.5 109q0 63 -44 108t-109 45q-63 0 -107.5 -45t-44.5 -108z" />
<glyph unicode="h" horiz-adv-x="1394" d="M0 0v1520h74v-723h559q14 80 75.5 133t145.5 53q45 0 86 -17.5t71.5 -48t48 -71.5t17.5 -86q0 -47 -17.5 -87t-48 -71t-71.5 -48t-86 -17q-84 0 -145.5 53t-75.5 133h-559v-723h-74zM702 760q0 -61 44.5 -105.5t107.5 -44.5q61 0 105.5 44t44.5 106q0 61 -44.5 105 t-105.5 44q-63 0 -107.5 -44t-44.5 -105zM1139 0v1520h73v-1520h-73z" />
<glyph unicode="i" horiz-adv-x="425" d="M0 154q0 53 33 94t84 53v918q-51 12 -84 53t-33 94q0 63 44 108.5t108 45.5q66 0 109.5 -45t43.5 -109q0 -53 -32.5 -94t-84.5 -53v-918q51 -12 84 -53t33 -94q0 -63 -44 -108.5t-109 -45.5q-63 0 -107.5 45t-44.5 109zM74 154q0 -33 22.5 -56.5t55.5 -23.5q35 0 57 23.5 t22 56.5t-22.5 56t-56.5 23q-33 0 -55.5 -23.5t-22.5 -55.5zM74 1366q0 -33 22.5 -56.5t55.5 -23.5q35 0 57 23.5t22 56.5t-22.5 56.5t-56.5 23.5q-33 0 -55.5 -23.5t-22.5 -56.5z" />
<glyph unicode="j" horiz-adv-x="882" d="M0 373h74q0 -61 23.5 -115.5t63.5 -95.5t95 -64.5t117 -23.5q61 0 115.5 23.5t95.5 64.5t64.5 95t23.5 116v1147h73v-1147q0 -78 -29.5 -145.5t-79.5 -118t-118.5 -80t-144.5 -29.5q-78 0 -145.5 29.5t-118 80t-80 118t-29.5 145.5zM150 373q0 47 17 88t48 71.5t71 48 t87 17.5q45 0 86 -17.5t71.5 -48t48 -71.5t17.5 -88t-17.5 -87t-48 -71t-71.5 -48t-86 -17q-47 0 -87 17t-71 48t-48 71t-17 87zM221 373q0 -61 44 -105.5t108 -44.5q61 0 105 44t44 106q0 63 -44 107t-105 44q-63 0 -107.5 -44t-44.5 -107z" />
<glyph unicode="k" horiz-adv-x="1222" d="M0 0v1516h74v-721h98q6 39 25.5 72.5t48 58t65.5 40t78 15.5q37 119 107.5 218t166 170t211 110t240.5 39v-74q-111 0 -214 -35t-189 -97.5t-150.5 -150.5t-99.5 -192q68 -23 110.5 -80.5t42.5 -130.5q0 -74 -43 -131.5t-108 -79.5q33 -106 97.5 -193.5t150.5 -150 t188 -97t215 -34.5v-74q-125 0 -240.5 39t-211 109.5t-166 170t-107.5 218.5q-41 0 -78 15t-65.5 39.5t-48 58.5t-25.5 73h-98v-721h-74zM242 758q0 -61 44 -105.5t105 -44.5q63 0 107.5 44.5t44.5 105.5t-44 105t-108 44q-61 0 -105 -44t-44 -105z" />
<glyph unicode="l" horiz-adv-x="1193" d="M0 760q0 84 54.5 145.5t131.5 75.5v539h74v-539q80 -14 133 -75.5t53 -145.5t-53 -145.5t-133 -75.5v-465h772v-74h-809h-37v539q-78 14 -132 75.5t-54 145.5zM74 760q0 -61 44 -105.5t105 -44.5q63 0 107.5 44t44.5 106q0 61 -44 105t-108 44q-61 0 -105 -44t-44 -105z " />
<glyph unicode="m" horiz-adv-x="1536" d="M0 0v1520h37q150 0 285 -54.5t241 -158.5q57 39 127 39q45 0 86 -17.5t72 -48.5t48 -72t17 -86q0 -47 -17 -87t-48 -70.5t-72 -48t-86 -17.5q-47 0 -87 17.5t-70.5 48t-48 70.5t-17.5 87q0 74 43 133q-90 86 -201.5 134.5t-234.5 54.5v-1444h-74zM541 1122q0 -61 44 -105 t105 -44q63 0 106.5 44t43.5 105q0 63 -43 106.5t-107 43.5q-61 0 -105 -43t-44 -107zM874 1366q98 76 215 115t242 39h37v-1520h-74v1444q-209 -10 -376 -137z" />
<glyph unicode="n" horiz-adv-x="1224" d="M0 0v1518l35 2q4 0 52 -3.5t123 -26t168 -71.5t185 -139q227 -221 326 -610v547q-51 12 -84 54t-33 95q0 63 45 107.5t109 44.5q63 0 107 -44.5t44 -107.5q0 -53 -32.5 -95t-81.5 -54v-1217h-74q0 856 -377 1227q-88 86 -174 130t-148 62q-37 10 -66.5 15.5t-49.5 9.5 v-1444h-74zM846 1366q0 -35 22.5 -57.5t57.5 -22.5q33 0 56.5 22.5t23.5 57.5q0 33 -24 56.5t-56 23.5q-35 0 -57.5 -23.5t-22.5 -56.5z" />
<glyph unicode="o" horiz-adv-x="1705" d="M0 760q0 156 59.5 295t163 241.5t241.5 163t296 60.5q156 0 294 -60.5t241.5 -163t163 -242t59.5 -294.5q0 -158 -59.5 -296t-163 -240.5t-242 -163t-293.5 -60.5q-158 0 -296 60.5t-241.5 163t-163 240.5t-59.5 296zM74 760q0 -141 54 -266t147.5 -218.5t218.5 -147.5 t266 -54t266 54t217 147.5t146.5 218t54.5 266.5q0 137 -50.5 259t-138.5 214t-206.5 148.5t-253.5 62.5v-465q80 -12 134 -73.5t54 -145.5q0 -47 -17.5 -87t-48 -71t-71.5 -48t-86 -17q-47 0 -88 17t-71 48t-47 71t-17 87q0 84 53 145.5t133 73.5v465q-135 -6 -254 -62.5 t-207 -148.5t-138 -214t-50 -259zM608 760q0 -61 44 -105.5t108 -44.5q61 0 105 44t44 106q0 61 -44 105t-105 44q-63 0 -107.5 -44t-44.5 -105z" />
<glyph unicode="p" horiz-adv-x="1193" d="M0 0v1520h74v-390h108q6 82 42 153t91.5 123t127 82t153.5 30q86 0 162 -33t132 -90.5t89 -134t33 -164.5t-33 -165t-89 -134.5t-132 -91t-162 -33.5q-82 0 -153.5 29.5t-127 82t-91.5 123t-42 152.5h-108v-1059h-74zM254 1096q0 -74 26.5 -137.5t73.5 -110.5t108.5 -75 t133.5 -28q70 0 132.5 28t109.5 75t73.5 110.5t26.5 137.5q0 72 -26.5 135t-73.5 111.5t-109.5 76t-132.5 27.5q-72 0 -133.5 -27.5t-108.5 -76t-73.5 -112t-26.5 -134.5z" />
<glyph unicode="q" horiz-adv-x="1708" d="M0 758q0 156 59.5 294t163 241.5t240.5 163t293 59.5t294 -59.5t241.5 -163t162.5 -242t59 -293.5q0 -123 -37.5 -237.5t-111.5 -213.5l-57 43q66 90 99.5 193.5t33.5 214.5q0 141 -53.5 266t-146.5 217t-218 146.5t-266 54.5t-265 -54.5t-217.5 -146.5t-146.5 -217 t-53 -266t53 -266t146.5 -217.5t217 -146.5t265.5 -54q129 0 245.5 45t212.5 131l-325 325q-59 -43 -133 -43q-47 0 -88 17.5t-72 48.5t-48.5 72t-17.5 88t17.5 88t48.5 71.5t72 48t88 17.5t88 -17.5t71.5 -48t49 -71.5t18.5 -88q0 -72 -43 -131l578 -578l-52 -53l-200 201 q-104 -96 -235.5 -145.5t-274.5 -49.5q-156 0 -293 59.5t-240.5 162t-163 239.5t-59.5 295zM604 758q0 -63 44 -108.5t108 -45.5q66 0 109.5 45t43.5 109q0 63 -44 108t-109 45q-63 0 -107.5 -45t-44.5 -108z" />
<glyph unicode="r" d="M0 2v1518h74v-381h108q6 80 41 149.5t89.5 119.5t125 80t150.5 30q84 0 158.5 -33t130 -89.5t87 -132t31.5 -161.5t-31.5 -161t-87 -131t-130 -89t-158.5 -33q-80 0 -150.5 30t-125 80t-89.5 119.5t-41 149.5h-108v-307q152 -6 285 -67.5t232 -164t156.5 -238.5 t57.5 -290h-72q0 139 -52 262t-141 215t-209 147.5t-257 61.5v-684h-74zM254 1102q0 -72 26.5 -133.5t71.5 -108.5t105.5 -73.5t130.5 -26.5t130 26.5t105 73.5t72 108.5t27 133.5t-27 134t-72 109.5t-105 74t-130 26.5t-130.5 -26.5t-105.5 -74t-71.5 -109.5t-26.5 -134z " />
<glyph unicode="s" horiz-adv-x="966" d="M0 1120q0 82 31.5 155t85 127t126 86t154.5 32v-74q-68 0 -127 -25.5t-102 -69.5t-68.5 -103.5t-25.5 -127.5q0 -61 22.5 -117.5t60.5 -99.5t90 -70.5t113 -33.5v174q-49 12 -82.5 53t-33.5 94q0 63 45 108.5t108 45.5t107.5 -45t44.5 -109q0 -53 -33 -94t-84 -53v-178 q76 -6 141.5 -40t114.5 -87.5t77 -122t28 -146.5q0 -82 -32 -154.5t-85 -127t-125 -86t-154 -31.5v74q68 0 126.5 25.5t102.5 69.5t69.5 103.5t25.5 126.5q0 61 -22.5 116.5t-61.5 98.5t-91 72t-114 35v-174q51 -12 84 -53t33 -95q0 -63 -44 -108t-108 -45q-63 0 -108 45 t-45 108q0 53 33.5 94.5t82.5 53.5v178q-76 6 -141 40t-114.5 87t-77 121.5t-27.5 146.5zM317 399q0 -35 22.5 -57.5t57.5 -22.5q33 0 55.5 22.5t22.5 57.5q0 33 -22.5 55.5t-55.5 22.5q-35 0 -57.5 -22.5t-22.5 -55.5zM317 1120q0 -33 22.5 -55.5t57.5 -22.5 q33 0 55.5 22.5t22.5 55.5q0 35 -22.5 57.5t-55.5 22.5q-35 0 -57.5 -22.5t-22.5 -57.5z" />
<glyph unicode="t" horiz-adv-x="1679" d="M0 760q0 156 59.5 295t163 241.5t241.5 163t296 60.5q156 0 295 -60.5t241.5 -163t163 -242t60.5 -294.5h-74q0 137 -51.5 258t-138.5 213t-205.5 149.5t-253.5 63.5v-465q39 -6 72.5 -25.5t59 -49.5t40 -66.5t14.5 -77.5q0 -84 -54.5 -145.5t-131.5 -75.5v-539h-74v539 q-80 14 -133 75.5t-53 145.5t53 145.5t133 73.5v465q-135 -6 -254 -63.5t-207 -149.5t-138 -213t-50 -258h-74zM610 760q0 -63 43 -107.5t107 -44.5q61 0 105 44.5t44 107.5q0 61 -44 105t-105 44q-63 0 -106.5 -44t-43.5 -105z" />
<glyph unicode="u" horiz-adv-x="1081" d="M0 473v1047h74v-1047q0 -78 27.5 -147.5t76.5 -122.5t115.5 -87t144.5 -40v164q-80 12 -134 73.5t-54 145.5q0 45 17.5 86t48 71.5t70.5 48t87 17.5q45 0 86 -17.5t72 -48t48 -71.5t17 -86q0 -84 -53 -144.5t-131 -74.5v-164q76 6 141.5 40t114.5 88t76.5 122.5 t27.5 146.5v1047h74v-1047q0 -98 -37 -184t-101.5 -150.5t-150.5 -101.5t-184 -37t-184 37t-150.5 101.5t-101.5 150.5t-37 184zM324 459q0 -61 43 -105.5t106 -44.5q61 0 105.5 44t44.5 106q0 63 -44 107t-106 44q-63 0 -106 -44t-43 -107z" />
<glyph unicode="v" horiz-adv-x="1308" d="M0 1493l68 27l505 -1315l207 540l-90 39q-43 -55 -117 -55q-63 0 -108 44t-45 108q0 66 45 109.5t108 43.5t108.5 -44t45.5 -109q0 -10 -4 -31l84 -37l270 707l70 -27l-574 -1493zM494 881q0 -33 22 -56.5t57 -23.5q33 0 56.5 23.5t23.5 56.5q0 35 -23.5 57.5t-56.5 22.5 q-35 0 -57 -23t-22 -57z" />
<glyph unicode="w" horiz-adv-x="1507" d="M0 0v1520h74v-1444q123 6 234.5 54t201.5 134q-43 59 -43 133q0 45 17.5 86t48 72t70.5 48.5t87 17.5q45 0 86 -17.5t72 -48.5t48 -72t17 -86q0 -47 -17 -87t-48 -70.5t-72 -48t-86 -17.5q-70 0 -127 39q-106 -104 -241.5 -158.5t-284.5 -54.5h-37zM541 397 q0 -63 44 -106t105 -43q63 0 106.5 43t43.5 106q0 61 -43 105.5t-107 44.5q-61 0 -105 -44t-44 -106zM874 154l44 59q168 -127 376 -137v1444h74v-1520h-37q-125 0 -241.5 39t-215.5 115z" />
<glyph unicode="x" horiz-adv-x="1507" d="M0 49l508 572q-49 61 -49 139t49 139l-508 571l55 50l506 -572q53 35 123 35q66 0 117 -33l504 570l55 -50l-504 -567q51 -61 51 -143t-51 -144l504 -567l-55 -49l-504 569q-50 -32 -113 -32h-4q-70 0 -123 34l-506 -571zM532 760q0 -63 44.5 -107.5t107.5 -44.5 q61 0 105.5 44t44.5 108q0 63 -44.5 107t-105.5 44q-63 0 -107.5 -44t-44.5 -107z" />
<glyph unicode="y" horiz-adv-x="1308" d="M0 1520h74q0 -98 36.5 -183.5t100 -150t149.5 -101t183 -36.5q98 0 183 36.5t149.5 101t101.5 149.5t37 184h73q0 -109 -39.5 -204t-108.5 -169t-161 -119t-198 -51v-262q51 -12 83.5 -53t32.5 -95q0 -53 -32.5 -94t-83.5 -53v-420h-72v420q-51 12 -84 53t-33 94t33 94 t84 54v262q-106 6 -199.5 51t-162 119t-107.5 169t-39 204zM465 567q0 -33 22.5 -56.5t55.5 -23.5q35 0 57.5 23.5t22.5 56.5t-22.5 56.5t-57.5 23.5q-33 0 -55.5 -23.5t-22.5 -56.5z" />
<glyph unicode="z" horiz-adv-x="1363" d="M0 0l442 608q-65 65 -65 155q0 48 17.5 88t47 70.5t69.5 48t85 17.5q53 0 102 -26l355 485h-981v74h1122l-436 -602q29 -29 44 -68t15 -84t-17.5 -85t-47 -70.5t-70.5 -48t-86 -17.5q-49 0 -94 22l-361 -493h981v-74h-1122zM449 766q0 -61 44 -104.5t103 -43.5 q61 0 105 43.5t44 104.5t-44 104t-105 43q-59 0 -103 -43t-44 -104z" />
<glyph unicode="&#x2000;" horiz-adv-x="760" />
<glyph unicode="&#x2001;" horiz-adv-x="1520" />
<glyph unicode="&#x2002;" horiz-adv-x="760" />
<glyph unicode="&#x2003;" horiz-adv-x="1520" />
<glyph unicode="&#x2004;" horiz-adv-x="506" />
<glyph unicode="&#x2005;" horiz-adv-x="380" />
<glyph unicode="&#x2006;" horiz-adv-x="253" />
<glyph unicode="&#x2007;" horiz-adv-x="253" />
<glyph unicode="&#x2008;" horiz-adv-x="190" />
<glyph unicode="&#x2009;" horiz-adv-x="304" />
<glyph unicode="&#x200a;" horiz-adv-x="84" />
<glyph unicode="&#x202f;" horiz-adv-x="304" />
<glyph unicode="&#x205f;" horiz-adv-x="380" />
<glyph unicode="&#x25fc;" horiz-adv-x="1515" d="M0 0v1516h1516v-1516h-1516z" />
</font>
</defs>
</svg>
